<mxfile host="app.diagrams.net" modified="2024-05-10T17:02:09.199Z" agent="Mozilla/5.0 (Windows NT 10.0; Win64; x64) AppleWebKit/537.36 (KHTML, like Gecko) Chrome/124.0.0.0 Safari/537.36" etag="8Xw3eykqAYMxNbgF_z36" version="24.3.1" type="github">
  <diagram name="Page-1" id="RCwE9hF9UZyF3mIVqDhg">
    <mxGraphModel dx="1259" dy="686" grid="1" gridSize="10" guides="1" tooltips="1" connect="1" arrows="1" fold="1" page="1" pageScale="1" pageWidth="850" pageHeight="1100" math="0" shadow="0">
      <root>
        <mxCell id="0" />
        <mxCell id="1" parent="0" />
        <mxCell id="EIcll34mtNV5xErqMhIh-1" value="USER" style="shape=umlActor;verticalLabelPosition=bottom;verticalAlign=top;html=1;outlineConnect=0;" vertex="1" parent="1">
          <mxGeometry x="100" y="290" width="70" height="110" as="geometry" />
        </mxCell>
        <mxCell id="EIcll34mtNV5xErqMhIh-2" value="Dashboard" style="ellipse;whiteSpace=wrap;html=1;" vertex="1" parent="1">
          <mxGeometry x="440" y="190" width="120" height="30" as="geometry" />
        </mxCell>
        <mxCell id="EIcll34mtNV5xErqMhIh-3" value="Leave" style="ellipse;whiteSpace=wrap;html=1;" vertex="1" parent="1">
          <mxGeometry x="440" y="240" width="120" height="30" as="geometry" />
        </mxCell>
        <mxCell id="EIcll34mtNV5xErqMhIh-4" value="Attendance" style="ellipse;whiteSpace=wrap;html=1;" vertex="1" parent="1">
          <mxGeometry x="440" y="290" width="120" height="30" as="geometry" />
        </mxCell>
        <mxCell id="EIcll34mtNV5xErqMhIh-5" value="Organisation" style="ellipse;whiteSpace=wrap;html=1;" vertex="1" parent="1">
          <mxGeometry x="440" y="340" width="120" height="30" as="geometry" />
        </mxCell>
        <mxCell id="EIcll34mtNV5xErqMhIh-6" value="Profile and Setting" style="ellipse;whiteSpace=wrap;html=1;" vertex="1" parent="1">
          <mxGeometry x="440" y="390" width="120" height="30" as="geometry" />
        </mxCell>
        <mxCell id="EIcll34mtNV5xErqMhIh-7" value="Help and Support" style="ellipse;whiteSpace=wrap;html=1;" vertex="1" parent="1">
          <mxGeometry x="440" y="440" width="120" height="30" as="geometry" />
        </mxCell>
        <mxCell id="EIcll34mtNV5xErqMhIh-8" value="Registration" style="ellipse;whiteSpace=wrap;html=1;" vertex="1" parent="1">
          <mxGeometry x="440" y="490" width="120" height="30" as="geometry" />
        </mxCell>
        <mxCell id="EIcll34mtNV5xErqMhIh-9" value="Login" style="ellipse;whiteSpace=wrap;html=1;" vertex="1" parent="1">
          <mxGeometry x="440" y="540" width="120" height="30" as="geometry" />
        </mxCell>
        <mxCell id="EIcll34mtNV5xErqMhIh-12" value="" style="endArrow=classic;html=1;rounded=0;entryX=0;entryY=0.5;entryDx=0;entryDy=0;" edge="1" parent="1" target="EIcll34mtNV5xErqMhIh-2">
          <mxGeometry width="50" height="50" relative="1" as="geometry">
            <mxPoint x="170" y="350" as="sourcePoint" />
            <mxPoint x="220" y="300" as="targetPoint" />
          </mxGeometry>
        </mxCell>
        <mxCell id="EIcll34mtNV5xErqMhIh-13" value="" style="endArrow=classic;html=1;rounded=0;entryX=0;entryY=0.5;entryDx=0;entryDy=0;" edge="1" parent="1" target="EIcll34mtNV5xErqMhIh-3">
          <mxGeometry width="50" height="50" relative="1" as="geometry">
            <mxPoint x="170" y="350" as="sourcePoint" />
            <mxPoint x="450" y="215" as="targetPoint" />
          </mxGeometry>
        </mxCell>
        <mxCell id="EIcll34mtNV5xErqMhIh-14" value="" style="endArrow=classic;html=1;rounded=0;entryX=0;entryY=0.5;entryDx=0;entryDy=0;" edge="1" parent="1" target="EIcll34mtNV5xErqMhIh-4">
          <mxGeometry width="50" height="50" relative="1" as="geometry">
            <mxPoint x="170" y="350" as="sourcePoint" />
            <mxPoint x="450" y="265" as="targetPoint" />
          </mxGeometry>
        </mxCell>
        <mxCell id="EIcll34mtNV5xErqMhIh-15" value="" style="endArrow=classic;html=1;rounded=0;entryX=0;entryY=0.5;entryDx=0;entryDy=0;" edge="1" parent="1" target="EIcll34mtNV5xErqMhIh-5">
          <mxGeometry width="50" height="50" relative="1" as="geometry">
            <mxPoint x="170" y="350" as="sourcePoint" />
            <mxPoint x="450" y="315" as="targetPoint" />
          </mxGeometry>
        </mxCell>
        <mxCell id="EIcll34mtNV5xErqMhIh-16" value="" style="endArrow=classic;html=1;rounded=0;entryX=0;entryY=0.5;entryDx=0;entryDy=0;" edge="1" parent="1" target="EIcll34mtNV5xErqMhIh-6">
          <mxGeometry width="50" height="50" relative="1" as="geometry">
            <mxPoint x="170" y="350" as="sourcePoint" />
            <mxPoint x="450" y="365" as="targetPoint" />
          </mxGeometry>
        </mxCell>
        <mxCell id="EIcll34mtNV5xErqMhIh-17" value="" style="endArrow=classic;html=1;rounded=0;entryX=0;entryY=0.5;entryDx=0;entryDy=0;" edge="1" parent="1" target="EIcll34mtNV5xErqMhIh-7">
          <mxGeometry width="50" height="50" relative="1" as="geometry">
            <mxPoint x="170" y="350" as="sourcePoint" />
            <mxPoint x="450" y="415" as="targetPoint" />
          </mxGeometry>
        </mxCell>
        <mxCell id="EIcll34mtNV5xErqMhIh-18" value="" style="endArrow=classic;html=1;rounded=0;entryX=0;entryY=0.5;entryDx=0;entryDy=0;" edge="1" parent="1" target="EIcll34mtNV5xErqMhIh-8">
          <mxGeometry width="50" height="50" relative="1" as="geometry">
            <mxPoint x="170" y="350" as="sourcePoint" />
            <mxPoint x="450" y="465" as="targetPoint" />
          </mxGeometry>
        </mxCell>
        <mxCell id="EIcll34mtNV5xErqMhIh-19" value="" style="endArrow=classic;html=1;rounded=0;entryX=0;entryY=0.5;entryDx=0;entryDy=0;" edge="1" parent="1" target="EIcll34mtNV5xErqMhIh-9">
          <mxGeometry width="50" height="50" relative="1" as="geometry">
            <mxPoint x="170" y="350" as="sourcePoint" />
            <mxPoint x="450" y="515" as="targetPoint" />
          </mxGeometry>
        </mxCell>
      </root>
    </mxGraphModel>
  </diagram>
</mxfile>
